<svg xmlns="http://www.w3.org/2000/svg" data-name="Layer 1" viewBox="0 0 95 118.75" x="0px" y="0px"><defs><style>.cls-1{fill-rule:evenodd;}</style></defs><title>a</title><path class="cls-1" d="M2.656,20.585a12.218,12.218,0,0,1,3.616-7.727l7.991-7.991a8.029,8.029,0,0,1,11.813.43L36.748,17.629a8.072,8.072,0,0,1-.391,10.991l-6.908,6.908A3.687,3.687,0,0,0,28.4,39.06a36.054,36.054,0,0,0,9.944,17.6A36.054,36.054,0,0,0,55.94,66.6a3.685,3.685,0,0,0,3.532-1.049l6.908-6.908a8.072,8.072,0,0,1,10.991-.391L89.7,68.924a8.026,8.026,0,0,1,.43,11.813l-7.991,7.991a12.218,12.218,0,0,1-7.727,3.616,37.56,37.56,0,0,1-6.9-.02C53.142,91,37.573,81.956,25.308,69.692S4,41.858,2.676,27.48a37.56,37.56,0,0,1-.02-6.895Zm4.918-2.408a8.282,8.282,0,0,0-.732,2.787,33.481,33.481,0,0,0,.02,6.137c1.23,13.35,9.794,27.974,21.429,39.608S54.55,86.908,67.9,88.138a33.481,33.481,0,0,0,6.137.02,7.9,7.9,0,0,0,5.124-2.413l7.991-7.991a3.8,3.8,0,0,0-.2-5.65L74.619,61.432a3.843,3.843,0,0,0-5.256.194l-6.908,6.908a7.947,7.947,0,0,1-7.389,2.186,40.289,40.289,0,0,1-19.7-11.082,40.284,40.284,0,0,1-11.082-19.7,7.947,7.947,0,0,1,2.186-7.389l6.908-6.908a3.843,3.843,0,0,0,.194-5.256L22.9,8.049a3.8,3.8,0,0,0-5.65-.2L9.255,15.841A8.272,8.272,0,0,0,7.574,18.177Z"/><text x="0" y="110" fill="#000000" font-size="5px" font-weight="bold" font-family="'Helvetica Neue', Helvetica, Arial-Unicode, Arial, Sans-serif">Created by yulia astuti</text><text x="0" y="115" fill="#000000" font-size="5px" font-weight="bold" font-family="'Helvetica Neue', Helvetica, Arial-Unicode, Arial, Sans-serif">from the Noun Project</text></svg>